<?xml version="1.0" encoding="UTF-8"?> <svg xmlns="http://www.w3.org/2000/svg" id="Layer_1" data-name="Layer 1" viewBox="0 0 225.3 107"><defs><style>.cls-1{font-size:17.62px;font-family:Fenix;letter-spacing:3.03px;}.cls-2{white-space:pre;}.cls-3{letter-spacing:2.02px;}.cls-4{stroke:#000;}</style></defs><title>MEDIA BANK LOGO-SVG</title><path d="M461.76,290c-0.1.69-.22,1.35-0.36,1.93a11.92,11.92,0,0,1-2.27,4.87,7.39,7.39,0,0,1-3.59,2.37,16.67,16.67,0,0,1-4.74.62,43,43,0,0,1-4.78-.25v-30h4.78a10.47,10.47,0,0,1,6.39,1.71,11,11,0,0,1,3.22,3.75l0.13,0.24h0.08a35,35,0,0,1,3.6,0c2.63,0,5.25,0,7.82.07l-0.23-.26a15.11,15.11,0,0,0-2.88-2.33,21.56,21.56,0,0,0-6.35-2.62,43,43,0,0,0-6.68-1.08v-0.33a32,32,0,0,0,4.83-1.08,23.44,23.44,0,0,0,5.49-2.41,15.69,15.69,0,0,0,4.5-4,9.72,9.72,0,0,0,1.86-6,11.19,11.19,0,0,0-1.9-6.66,14,14,0,0,0-4.83-4.24,22.19,22.19,0,0,0-6.48-2.25,36.73,36.73,0,0,0-6.76-.67q-3.46,0-6.85.13t-6.85.12H426.46v1.17h7.59v56.92h-7.59v1.17h12.46q3.46,0,6.89.08t6.89,0.08a40.73,40.73,0,0,0,7.09-.71,25.83,25.83,0,0,0,7.46-2.54,17.83,17.83,0,0,0,5.94-5,10.91,10.91,0,0,0,1.54-2.81h-0.18C470.3,290.11,466,290.05,461.76,290ZM446,242.67l1.81-.17q0.91-.08,1.81-0.08a13.69,13.69,0,0,1,5.16.83,6.93,6.93,0,0,1,3.18,2.54,11.45,11.45,0,0,1,1.65,4.33,34.37,34.37,0,0,1,.5,6.28,33.49,33.49,0,0,1-.29,4.41,9.55,9.55,0,0,1-1.36,3.87,7.31,7.31,0,0,1-3.22,2.7,14.12,14.12,0,0,1-5.86,1H446V242.67Z" transform="translate(-297.19 -228)"></path><path d="M370.62,243.79v-1.17H349.22l-15.06,41.44H334l-14.8-41.44h-22v1.17h7.87v56.92h-7.87v1.17h17.11v-1.17h-7.87V243.79h0.17l21.14,58.08h1.37l21.05-58.08h0.17V275h12.41V243.79h7.87Z" transform="translate(-297.19 -228)"></path><path d="M350.33,301.36h-7.79v0.51h28.07v-0.51h-7.87V290H350.33v11.36Z" transform="translate(-297.19 -228)"></path><text class="cls-1" transform="translate(44.38 60.08) scale(0.99 1)"><tspan class="cls-2"> ME</tspan><tspan x="39.51" y="0">D</tspan><tspan x="55.29" y="0">I</tspan><tspan class="cls-3" x="64.54" y="0">A</tspan></text><text class="cls-1" transform="translate(158.42 60.45) scale(0.99 1)"><tspan x="7.4" y="0">B</tspan><tspan x="21.59" y="0">AN</tspan><tspan x="52.88" y="0">K</tspan></text><line class="cls-4" x1="102.31" x2="102.31" y2="43"></line><line class="cls-4" x1="102.31" y1="65" x2="102.31" y2="107"></line></svg> 